<svg xmlns="http://www.w3.org/2000/svg" width="18" height="18" viewBox="0 0 18 18">
  <defs>
    <style>
      .cls-1 {
        fill: #fff;
        fill-rule: evenodd;
      }
    </style>
  </defs>
  <path id="_01-favorite" data-name="01-favorite" class="cls-1" d="M101.168,144.905a1.681,1.681,0,0,1-1.544-.2s-1.661-1.232-3.63-2.694l-3.574,2.653a1.643,1.643,0,0,1-1.012.344,1.7,1.7,0,0,1-1.687-1.7,1.745,1.745,0,0,1,.046-0.388l1.289-4.647c-1.849-1.485-3.4-2.732-3.4-2.732a1.7,1.7,0,0,1,1.031-3.049l4.242-.006c0.769-2.175,1.433-4.217,1.433-4.217a1.68,1.68,0,0,1,3.263,0s0.663,2.042,1.431,4.217l4.29,0.007h0a1.7,1.7,0,0,1,1,3.029s-1.55,1.251-3.421,2.751c0.732,2.62,1.289,4.644,1.289,4.644a1.9,1.9,0,0,1,.041.247A1.722,1.722,0,0,1,101.168,144.905ZM96,139.732a1,1,0,0,1,.6.2s2.21,1.642,3.421,2.541c-0.3-1.095-.819-2.943-1.2-4.3a1.021,1.021,0,0,1,.343-1.071s2.147-1.72,3.264-2.619h-4.13a1.009,1.009,0,0,1-.9-0.675s-0.913-2.778-1.391-4.128c-0.479,1.35-1.393,4.128-1.393,4.128a1.008,1.008,0,0,1-.9.675H89.574l3.26,2.618a1.022,1.022,0,0,1,.343,1.069l-1.193,4.3,3.414-2.535A1.006,1.006,0,0,1,96,139.732Z" transform="translate(-87 -127)"/>
</svg>
