<svg xmlns="http://www.w3.org/2000/svg" width="18" height="16" viewBox="0 0 18 16">
  <defs>
    <style>
      .cls-1 {
        fill: #fff;
        fill-rule: evenodd;
      }
    </style>
  </defs>
  <path id="_04-percent" data-name="04-percent" class="cls-1" d="M90.677,299.718a0.986,0.986,0,0,1-1.395-1.4l14.041-14.041a0.986,0.986,0,0,1,1.4,1.4ZM91.5,291a3.5,3.5,0,1,1,3.5-3.5A3.5,3.5,0,0,1,91.5,291Zm0-5a1.5,1.5,0,1,0,1.5,1.5A1.5,1.5,0,0,0,91.5,286Zm11,7a3.5,3.5,0,1,1-3.5,3.5A3.5,3.5,0,0,1,102.5,293Zm0,5.014a1.514,1.514,0,1,0-1.513-1.513A1.514,1.514,0,0,0,102.5,298.013Z" transform="translate(-88 -284)"/>
</svg>
